
          <svg data-logo="logo" xmlns="http://www.w3.org/2000/svg" viewBox="0 0 251 42">
            <g id="logogram" transform="translate(0, 1) rotate(0)"><path d="M16.5877 36.7446C11.9889 41.3226 4.20028 41.3044 2.02513 35.2029C1.59927 34.0084 1.25878 32.7801 1.00835 31.5268C-0.0141606 26.4094 0.510628 21.1053 2.51635 16.2849C4.52207 11.4646 7.91864 7.34456 12.2765 4.44587C16.6345 1.54717 21.758 -2.23498e-07 26.9992 0C32.2404 2.23498e-07 37.3639 1.54717 41.7217 4.44587C46.0797 7.34456 49.4762 11.4646 51.482 16.285C53.4877 21.1053 54.0124 26.4094 52.99 31.5268C52.7396 32.7801 52.3991 34.0084 51.9731 35.2029C49.798 41.3044 42.0094 41.3226 37.4106 36.7446L30.3117 29.6777C29.6334 29.0026 29.7035 27.8891 29.8906 26.9527C30.0043 26.3835 29.9459 25.7934 29.7227 25.2571C29.4996 24.7209 29.1218 24.2625 28.637 23.9401C28.1522 23.6177 27.5823 23.4455 26.9992 23.4455C26.4161 23.4455 25.8462 23.6177 25.3614 23.9401C24.8764 24.2625 24.4987 24.7209 24.2755 25.2571C24.0524 25.7934 23.994 26.3835 24.1078 26.9527C24.2949 27.8891 24.3648 29.0026 23.6866 29.6777L16.5877 36.7446Z" fill="url(#paint0_linear_5557_2015)"/></g>
            <g id="logotype" transform="translate(60, 7.5)"><path fill="#111111" d="M13.49 27L8.31 27L8.31 1.54L16.31 1.54L20.44 13.23Q20.70 14.05 21.03 15.34Q21.36 16.64 21.71 18.15Q22.05 19.65 22.35 21.07Q22.65 22.49 22.83 23.53L22.83 23.53L21.83 23.53Q22.01 22.51 22.31 21.10Q22.61 19.69 22.95 18.18Q23.29 16.68 23.63 15.36Q23.96 14.05 24.22 13.23L24.22 13.23L28.29 1.54L36.32 1.54L36.32 27L31.07 27L31.07 14.99Q31.07 14.17 31.10 12.92Q31.14 11.67 31.17 10.23Q31.21 8.78 31.24 7.32Q31.28 5.86 31.29 4.56L31.29 4.56L31.62 4.56Q31.29 5.98 30.90 7.49Q30.51 9.00 30.11 10.42Q29.70 11.84 29.34 13.03Q28.99 14.22 28.73 14.99L28.73 14.99L24.51 27L20.12 27L15.83 14.99Q15.57 14.22 15.21 13.05Q14.85 11.88 14.45 10.46Q14.05 9.04 13.64 7.53Q13.23 6.01 12.85 4.56L12.85 4.56L13.26 4.56Q13.28 5.79 13.31 7.24Q13.35 8.70 13.39 10.16Q13.43 11.62 13.46 12.88Q13.49 14.13 13.49 14.99L13.49 14.99L13.49 27ZM43.85 27.38L43.85 27.38Q42.04 27.38 40.60 26.74Q39.15 26.09 38.32 24.82Q37.49 23.55 37.49 21.65L37.49 21.65Q37.49 20.06 38.08 18.98Q38.67 17.91 39.69 17.26Q40.71 16.61 42.00 16.27Q43.29 15.93 44.71 15.79L44.71 15.79Q46.36 15.62 47.38 15.47Q48.40 15.33 48.87 15.01Q49.34 14.70 49.34 14.08L49.34 14.08L49.34 13.99Q49.34 13.17 49.00 12.61Q48.65 12.05 47.99 11.75Q47.32 11.45 46.35 11.45L46.35 11.45Q45.36 11.45 44.62 11.75Q43.89 12.05 43.42 12.54Q42.96 13.04 42.74 13.65L42.74 13.65L38.04 12.87Q38.54 11.21 39.68 10.05Q40.83 8.88 42.53 8.27Q44.23 7.65 46.35 7.65L46.35 7.65Q47.90 7.65 49.35 8.02Q50.81 8.39 51.96 9.16Q53.11 9.93 53.79 11.16Q54.46 12.39 54.46 14.13L54.46 14.13L54.46 27L49.61 27L49.61 24.35L49.44 24.35Q48.98 25.24 48.21 25.91Q47.44 26.59 46.36 26.98Q45.27 27.38 43.85 27.38ZM45.30 23.77L45.30 23.77Q46.52 23.77 47.43 23.29Q48.35 22.81 48.86 21.99Q49.37 21.17 49.37 20.16L49.37 20.16L49.37 18.10Q49.15 18.27 48.69 18.40Q48.23 18.54 47.66 18.64Q47.10 18.75 46.55 18.83Q46.01 18.92 45.58 18.97L45.58 18.97Q44.64 19.10 43.92 19.41Q43.20 19.72 42.81 20.22Q42.42 20.73 42.42 21.51L42.42 21.51Q42.42 22.25 42.79 22.75Q43.17 23.26 43.81 23.51Q44.45 23.77 45.30 23.77ZM61.69 27L56.56 27L56.56 7.89L61.52 7.89L61.52 11.23L61.73 11.23Q62.26 9.45 63.49 8.54Q64.73 7.64 66.34 7.64L66.34 7.64Q66.73 7.64 67.19 7.68Q67.64 7.72 68.00 7.81L68.00 7.81L68.00 12.39Q67.66 12.27 67.01 12.20Q66.36 12.13 65.78 12.13L65.78 12.13Q64.61 12.13 63.67 12.64Q62.73 13.14 62.21 14.04Q61.69 14.93 61.69 16.13L61.69 16.13L61.69 27ZM76.68 17.48L73.19 21.41L73.19 15.24L73.96 15.24L80.22 7.89L86.15 7.89L77.89 17.48L76.68 17.48ZM73.67 27L68.54 27L68.54 1.54L73.67 1.54L73.67 27ZM86.50 27L80.47 27L74.73 18.63L78.16 14.99L86.50 27ZM95.20 27.38L95.20 27.38Q92.28 27.38 90.16 26.18Q88.04 24.98 86.90 22.78Q85.77 20.57 85.77 17.55L85.77 17.55Q85.77 14.59 86.90 12.37Q88.02 10.15 90.09 8.90Q92.16 7.65 94.94 7.65L94.94 7.65Q96.82 7.65 98.45 8.25Q100.07 8.85 101.30 10.06Q102.53 11.26 103.22 13.07Q103.92 14.88 103.92 17.34L103.92 17.34L103.92 18.78L87.87 18.78L87.87 15.57L101.40 15.57L99.01 16.42Q99.01 14.93 98.56 13.83Q98.11 12.73 97.21 12.12Q96.31 11.52 94.98 11.52L94.98 11.52Q93.66 11.52 92.73 12.13Q91.80 12.75 91.32 13.80Q90.84 14.85 90.84 16.20L90.84 16.20L90.84 18.47Q90.84 20.13 91.40 21.26Q91.95 22.39 92.95 22.95Q93.95 23.51 95.29 23.51L95.29 23.51Q96.19 23.51 96.93 23.26Q97.66 23.00 98.18 22.50Q98.70 21.99 98.98 21.26L98.98 21.26L103.63 22.13Q103.16 23.70 102.02 24.89Q100.87 26.08 99.16 26.73Q97.44 27.38 95.20 27.38ZM103.30 7.89L114.63 7.89L114.63 11.81L103.30 11.81L103.30 7.89ZM105.93 21.86L105.93 3.35L111.06 3.35L111.06 21.41Q111.06 22.32 111.46 22.75Q111.86 23.19 112.80 23.19L112.80 23.19Q113.09 23.19 113.62 23.11Q114.15 23.04 114.42 22.97L114.42 22.97L115.16 26.81Q114.31 27.07 113.46 27.17Q112.61 27.27 111.84 27.27L111.84 27.27Q108.97 27.27 107.45 25.87Q105.93 24.47 105.93 21.86L105.93 21.86ZM120.99 27L115.81 27L115.81 1.54L123.81 1.54L127.94 13.23Q128.20 14.05 128.53 15.34Q128.86 16.64 129.21 18.15Q129.55 19.65 129.85 21.07Q130.15 22.49 130.33 23.53L130.33 23.53L129.33 23.53Q129.51 22.51 129.81 21.10Q130.11 19.69 130.45 18.18Q130.79 16.68 131.13 15.36Q131.46 14.05 131.72 13.23L131.72 13.23L135.79 1.54L143.82 1.54L143.82 27L138.57 27L138.57 14.99Q138.57 14.17 138.60 12.92Q138.64 11.67 138.67 10.23Q138.71 8.78 138.74 7.32Q138.78 5.86 138.79 4.56L138.79 4.56L139.12 4.56Q138.79 5.98 138.40 7.49Q138.01 9.00 137.61 10.42Q137.20 11.84 136.84 13.03Q136.49 14.22 136.23 14.99L136.23 14.99L132.01 27L127.62 27L123.33 14.99Q123.07 14.22 122.71 13.05Q122.35 11.88 121.95 10.46Q121.55 9.04 121.14 7.53Q120.73 6.01 120.35 4.56L120.35 4.56L120.76 4.56Q120.78 5.79 120.81 7.24Q120.85 8.70 120.89 10.16Q120.93 11.62 120.96 12.88Q120.99 14.13 120.99 14.99L120.99 14.99L120.99 27ZM151.15 27L146.02 27L146.02 7.89L151.15 7.89L151.15 27ZM148.58 5.40L148.58 5.40Q147.42 5.40 146.60 4.63Q145.78 3.86 145.78 2.77L145.78 2.77Q145.78 1.67 146.60 0.90Q147.42 0.13 148.58 0.13L148.58 0.13Q149.75 0.13 150.57 0.90Q151.40 1.66 151.40 2.77L151.40 2.77Q151.40 3.86 150.57 4.63Q149.75 5.40 148.58 5.40ZM158.36 15.94L158.36 15.94L158.36 27L153.23 27L153.23 7.89L158.07 7.89L158.15 12.66L157.84 12.66Q158.60 10.27 160.13 8.96Q161.65 7.65 164.08 7.65L164.08 7.65Q166.06 7.65 167.53 8.52Q169.00 9.38 169.82 11.00Q170.64 12.61 170.64 14.85L170.64 14.85L170.64 27L165.52 27L165.52 15.74Q165.52 13.96 164.60 12.95Q163.69 11.94 162.07 11.94L162.07 11.94Q160.99 11.94 160.14 12.41Q159.30 12.88 158.83 13.77Q158.36 14.66 158.36 15.94ZM179.73 27.32L179.73 27.32Q177.53 27.32 175.76 26.19Q173.99 25.05 172.97 22.86Q171.94 20.66 171.94 17.48L171.94 17.48Q171.94 14.22 173.00 12.03Q174.06 9.84 175.82 8.75Q177.58 7.65 179.70 7.65L179.70 7.65Q181.32 7.65 182.40 8.20Q183.48 8.75 184.14 9.55Q184.81 10.35 185.13 11.11L185.13 11.11L185.31 11.11L185.31 1.54L190.43 1.54L190.43 27L185.39 27L185.39 23.94L185.13 23.94Q184.79 24.71 184.12 25.49Q183.44 26.27 182.37 26.79Q181.29 27.32 179.73 27.32ZM181.31 23.21L181.31 23.21Q182.61 23.21 183.53 22.49Q184.45 21.77 184.93 20.48Q185.41 19.19 185.41 17.46L185.41 17.46Q185.41 15.72 184.94 14.45Q184.47 13.17 183.55 12.47Q182.62 11.76 181.31 11.76L181.31 11.76Q179.96 11.76 179.04 12.49Q178.13 13.23 177.67 14.51Q177.20 15.79 177.20 17.46L177.20 17.46Q177.20 19.14 177.67 20.44Q178.14 21.74 179.06 22.47Q179.97 23.21 181.31 23.21Z"/></g>
            <defs xmlns="http://www.w3.org/2000/svg">
<linearGradient id="paint0_linear_5557_2015" x1="51.087" y1="13.1901" x2="4.04948" y2="13.1901" gradientUnits="userSpaceOnUse">
<stop stop-color="#64C2DB"/>
<stop offset="0.510417" stop-color="#7476ED"/>
<stop offset="1" stop-color="#E56F8C"/>
</linearGradient>
</defs>
          </svg>
        